<svg xmlns="http://www.w3.org/2000/svg" width="431.84" height="324.705" viewBox="0 0 431.84 324.705">
  <g id="グループ_734" data-name="グループ 734" transform="translate(-70.34 4.134)">
    <g id="Artwork_8" data-name="Artwork 8" transform="translate(290.362 0)">
      <g id="グループ_728" data-name="グループ 728" transform="translate(0)">
        <line id="線_430" data-name="線 430" y1="71.139" x2="28.974" transform="translate(0 91.008)" fill="none" stroke="#094067" stroke-miterlimit="10" stroke-width="2.39"/>
        <path id="パス_1643" data-name="パス 1643" d="M141.362,174.955l-30.045,73.77L4.222,205.107" transform="translate(-1.66 -38.849)" fill="none" stroke="#094067" stroke-miterlimit="10" stroke-width="2.39"/>
        <path id="パス_1644" data-name="パス 1644" d="M147.647,155.369,33.51,108.884l9.22-22.638" transform="translate(-7.496 -21.172)" fill="none" stroke="#094067" stroke-miterlimit="10" stroke-width="2.39"/>
        <path id="パス_1645" data-name="パス 1645" d="M47.213,83.616l116.574,47.478L153.9,155.368" transform="translate(-10.227 -20.648)" fill="none" stroke="#094067" stroke-miterlimit="10" stroke-width="2.39"/>
        <path id="パス_1646" data-name="パス 1646" d="M75.4,215.651a4.425,4.425,0,0,0,.7-1.172s38.191-93.772,40.707-99.959c.088-.207.133-.314.133-.32a4.556,4.556,0,0,0,.142-3.021,5.742,5.742,0,0,0-2.57-3.313,4.89,4.89,0,0,0-.772-.392l-.151-.057c-.182-.076-.364-.14-.546-.2a5.784,5.784,0,0,0-3.518.057,5.392,5.392,0,0,0-1.032.493c-.006.006-.006.006-.006,0a4.71,4.71,0,0,0-1.886,2.224l-.323.791L65.76,210.265a4.319,4.319,0,0,0-.319,1.331" transform="translate(-13.859 -25.302)" fill="none" stroke="#094067" stroke-miterlimit="10" stroke-width="2.39"/>
        <path id="パス_1647" data-name="パス 1647" d="M130.261,109.607c.039-.464.1-.923.168-1.381a19.219,19.219,0,0,1,12.817-14.935,8.475,8.475,0,0,1,4.355-.406,4.1,4.1,0,0,1,3.151,2.775,4.215,4.215,0,0,1-1,3.609,10.951,10.951,0,0,1-3.056,2.365,61.28,61.28,0,0,1-16.269,6.592c-.164.043-.327.086-.5.118" transform="translate(-26.71 -22.467)" fill="none" stroke="#094067" stroke-miterlimit="10" stroke-width="2.39"/>
        <path id="パス_1648" data-name="パス 1648" d="M126.722,101.5a33.371,33.371,0,0,1,12.805-22.505c3.105-2.346,6.849-4.181,10.738-3.953a11.179,11.179,0,0,1,6.707,2.762c4.36,3.841,4.989,10.823,2.415,16.029s-7.757,8.745-13.262,10.611c-5.234,1.778-11.5,3.561-17.107,3.711" transform="translate(-26.071 -18.935)" fill="none" stroke="#094067" stroke-miterlimit="10" stroke-width="2.39"/>
        <path id="パス_1649" data-name="パス 1649" d="M116.308,102.8a19.257,19.257,0,0,0-8.519-16.741,8.478,8.478,0,0,0-4.1-1.528,4.078,4.078,0,0,0-3.77,1.846,4.221,4.221,0,0,0,.012,3.745,11.026,11.026,0,0,0,2.333,3.086,61.142,61.142,0,0,0,13,10.084c0,.006,0,.006.006,0" transform="translate(-20.644 -20.83)" fill="none" stroke="#094067" stroke-miterlimit="10" stroke-width="2.39"/>
        <path id="パス_1650" data-name="パス 1650" d="M112.037,101.7A83.781,83.781,0,0,1,98.1,94.955c-5.354-3.131-9.878-7.736-11.131-13.232a12.635,12.635,0,0,1,7.264-14.295,14.184,14.184,0,0,1,8-.863c4.237.778,7.721,3.43,10.372,6.4a28.958,28.958,0,0,1,6.948,25.309" transform="translate(-18.09 -17.204)" fill="none" stroke="#094067" stroke-miterlimit="10" stroke-width="2.39"/>
        <path id="パス_1651" data-name="パス 1651" d="M96.638,86.033a70.985,70.985,0,0,1-31.82-28,70.988,70.988,0,0,1-10-41.192l26.55,24.006A90.615,90.615,0,0,1,84.018,4.977L97.259,45.984c1.135,3.514,2.489,7.317,5.632,9.255" transform="translate(-11.712 -4.977)" fill="none" stroke="#094067" stroke-miterlimit="10" stroke-width="2.39"/>
        <path id="パス_1652" data-name="パス 1652" d="M156.823,108.3a68.381,68.381,0,0,0,40.286-6.958,69.421,69.421,0,0,0,29.234-28.884L192.4,78.795a88.776,88.776,0,0,0,16.2-30.9L176.812,74.982c-2.723,2.321-5.774,4.77-9.33,4.775" transform="translate(-32.069 -13.529)" fill="none" stroke="#094067" stroke-miterlimit="10" stroke-width="2.39"/>
        <path id="パス_1653" data-name="パス 1653" d="M171.791,13.99" transform="translate(-35.052 -6.773)" fill="none" stroke="#094067" stroke-miterlimit="10" stroke-width="2.39"/>
        <path id="パス_1654" data-name="パス 1654" d="M116.747,18.071" transform="translate(-24.083 -7.586)" fill="none" stroke="#094067" stroke-miterlimit="10" stroke-width="2.39"/>
        <path id="パス_1655" data-name="パス 1655" d="M124.585,21.315" transform="translate(-25.645 -8.233)" fill="none" stroke="#094067" stroke-miterlimit="10" stroke-width="2.39"/>
        <path id="パス_1656" data-name="パス 1656" d="M123.169,111.635" transform="translate(-25.363 -26.231)" fill="none" stroke="#094067" stroke-miterlimit="10" stroke-width="2.39"/>
        <path id="パス_1657" data-name="パス 1657" d="M123.169,111.635" transform="translate(-25.363 -26.231)" fill="none" stroke="#094067" stroke-miterlimit="10" stroke-width="2.39"/>
        <path id="パス_1658" data-name="パス 1658" d="M123.169,111.635" transform="translate(-25.363 -26.231)" fill="none" stroke="#094067" stroke-miterlimit="10" stroke-width="2.39"/>
        <path id="パス_1659" data-name="パス 1659" d="M123.169,111.635" transform="translate(-25.363 -26.231)" fill="none" stroke="#094067" stroke-miterlimit="10" stroke-width="2.39"/>
        <path id="パス_1660" data-name="パス 1660" d="M149.86,64.061" transform="translate(-30.681 -16.751)" fill="none" stroke="#094067" stroke-miterlimit="10" stroke-width="2.39"/>
        <path id="パス_1661" data-name="パス 1661" d="M265.555,77.511" transform="translate(-53.736 -19.431)" fill="none" stroke="#094067" stroke-miterlimit="10" stroke-width="2.39"/>
      </g>
    </g>
    <g id="グループ_726" data-name="グループ 726" transform="translate(71.499 107.795)">
      <rect id="長方形_2321" data-name="長方形 2321" width="324.714" height="210.476" rx="34.906" transform="translate(0.755 0) rotate(0.195)" fill="#fffffe" stroke="#005893" stroke-miterlimit="10" stroke-width="2.39"/>
      <path id="パス_1531" data-name="パス 1531" d="M0,0,285.745-.051l-.032,172.188-285.745.051Z" transform="translate(20.19 19.235) rotate(0.195)" fill="none" stroke="#2b4b62" stroke-width="2.39"/>
      <g id="グループ_715" data-name="グループ 715" transform="translate(61.377 39.002)">
        <rect id="長方形_2324" data-name="長方形 2324" width="26.831" height="10.933" transform="translate(46.077 26.829) rotate(-89.805)" fill="none" stroke="#2b4b62" stroke-miterlimit="10" stroke-width="3"/>
        <rect id="長方形_2325" data-name="長方形 2325" width="26.834" height="28.309" transform="translate(57.005 26.864) rotate(-89.805)" fill="none" stroke="#2b4b62" stroke-miterlimit="10" stroke-width="3"/>
        <rect id="長方形_2326" data-name="長方形 2326" width="26.834" height="28.309" transform="translate(85.309 26.956) rotate(-89.805)" fill="none" stroke="#2b4b62" stroke-miterlimit="10" stroke-width="3"/>
        <rect id="長方形_2327" data-name="長方形 2327" width="26.834" height="28.321" transform="translate(113.612 27.047) rotate(-89.805)" fill="none" stroke="#2b4b62" stroke-miterlimit="10" stroke-width="3"/>
        <rect id="長方形_2328" data-name="長方形 2328" width="26.834" height="28.309" transform="translate(141.928 27.138) rotate(-89.805)" fill="none" stroke="#2b4b62" stroke-miterlimit="10" stroke-width="3"/>
        <rect id="長方形_2329" data-name="長方形 2329" width="26.834" height="28.309" transform="translate(170.232 27.229) rotate(-89.805)" fill="none" stroke="#2b4b62" stroke-miterlimit="10" stroke-width="3"/>
        <rect id="長方形_2330" data-name="長方形 2330" width="10.863" height="28.306" transform="translate(0.288 53.511) rotate(-89.805)" fill="none" stroke="#2b4b62" stroke-miterlimit="10" stroke-width="3"/>
        <path id="パス_1523" data-name="パス 1523" d="M172.818,111.358l-.1,26.829-28.316-.091.039-10.858,17.389.056.057-15.971Z" transform="translate(-115.814 -84.493)" fill="none" stroke="#2b4b62" stroke-miterlimit="10" stroke-width="3"/>
        <rect id="長方形_2331" data-name="長方形 2331" width="26.846" height="28.309" transform="translate(56.909 53.706) rotate(-89.805)" fill="none" stroke="#2b4b62" stroke-miterlimit="10" stroke-width="3"/>
        <rect id="長方形_2332" data-name="長方形 2332" width="26.846" height="28.309" transform="translate(85.212 53.797) rotate(-89.805)" fill="none" stroke="#2b4b62" stroke-miterlimit="10" stroke-width="3"/>
        <rect id="長方形_2333" data-name="長方形 2333" width="26.846" height="28.321" transform="translate(113.516 53.888) rotate(-89.805)" fill="none" stroke="#2b4b62" stroke-miterlimit="10" stroke-width="3"/>
        <rect id="長方形_2334" data-name="長方形 2334" width="26.846" height="28.309" transform="translate(141.832 53.979) rotate(-89.805)" fill="none" stroke="#2b4b62" stroke-miterlimit="10" stroke-width="3"/>
        <rect id="長方形_2335" data-name="長方形 2335" width="26.846" height="28.309" transform="translate(170.136 54.07) rotate(-89.805)" fill="none" stroke="#2b4b62" stroke-miterlimit="10" stroke-width="3"/>
        <rect id="長方形_2336" data-name="長方形 2336" width="26.834" height="28.321" transform="translate(0.192 80.352) rotate(-89.805)" fill="none" stroke="#2b4b62" stroke-miterlimit="10" stroke-width="3"/>
        <rect id="長方形_2337" data-name="長方形 2337" width="26.834" height="28.309" transform="translate(28.509 80.444) rotate(-89.805)" fill="none" stroke="#2b4b62" stroke-miterlimit="10" stroke-width="3"/>
        <rect id="長方形_2338" data-name="長方形 2338" width="26.834" height="28.309" transform="translate(56.812 80.535) rotate(-89.805)" fill="none" stroke="#2b4b62" stroke-miterlimit="10" stroke-width="3"/>
        <path id="パス_1524" data-name="パス 1524" d="M262.8,156.71l-.068,18.838-8-.026-.029,7.992-20.3-.065.1-26.829Z" transform="translate(-149.285 -102.822)" fill="none" stroke="#2b4b62" stroke-miterlimit="10" stroke-width="3"/>
        <rect id="長方形_2339" data-name="長方形 2339" width="18.843" height="28.32" transform="translate(113.448 72.725) rotate(-89.805)" fill="none" stroke="#2b4b62" stroke-miterlimit="10" stroke-width="3"/>
        <path id="パス_1525" data-name="パス 1525" d="M352.966,157.016l-.1,26.829-19.459-.063.029-7.992-8.845-.028.068-18.838Z" transform="translate(-182.83 -102.946)" fill="none" stroke="#2b4b62" stroke-miterlimit="10" stroke-width="3"/>
        <rect id="長方形_2340" data-name="長方形 2340" width="26.834" height="28.309" transform="translate(170.04 80.899) rotate(-89.805)" fill="none" stroke="#2b4b62" stroke-miterlimit="10" stroke-width="3"/>
        <rect id="長方形_2341" data-name="長方形 2341" width="26.834" height="28.321" transform="translate(0.096 107.182) rotate(-89.805)" fill="none" stroke="#2b4b62" stroke-miterlimit="10" stroke-width="3"/>
        <rect id="長方形_2342" data-name="長方形 2342" width="26.834" height="28.309" transform="translate(28.412 107.273) rotate(-89.805)" fill="none" stroke="#2b4b62" stroke-miterlimit="10" stroke-width="3"/>
        <rect id="長方形_2343" data-name="長方形 2343" width="26.834" height="28.309" transform="translate(56.716 107.364) rotate(-89.805)" fill="none" stroke="#2b4b62" stroke-miterlimit="10" stroke-width="3"/>
        <rect id="長方形_2344" data-name="長方形 2344" width="26.833" height="20.304" transform="translate(85.02 107.455) rotate(-89.805)" fill="none" stroke="#2b4b62" stroke-miterlimit="10" stroke-width="3"/>
        <rect id="長方形_2345" data-name="長方形 2345" width="26.833" height="19.464" transform="translate(150.485 107.666) rotate(-89.805)" fill="none" stroke="#2b4b62" stroke-miterlimit="10" stroke-width="3"/>
        <rect id="長方形_2346" data-name="長方形 2346" width="26.834" height="28.309" transform="translate(169.944 107.729) rotate(-89.805)" fill="none" stroke="#2b4b62" stroke-miterlimit="10" stroke-width="3"/>
        <rect id="長方形_2347" data-name="長方形 2347" width="26.834" height="28.321" transform="translate(0 134.011) rotate(-89.805)" fill="none" stroke="#2b4b62" stroke-miterlimit="10" stroke-width="3"/>
        <rect id="長方形_2348" data-name="長方形 2348" width="26.834" height="28.309" transform="translate(28.316 134.102) rotate(-89.805)" fill="none" stroke="#2b4b62" stroke-miterlimit="10" stroke-width="3"/>
        <rect id="長方形_2349" data-name="長方形 2349" width="26.834" height="28.309" transform="translate(56.62 134.193) rotate(-89.805)" fill="none" stroke="#2b4b62" stroke-miterlimit="10" stroke-width="3"/>
        <path id="パス_1526" data-name="パス 1526" d="M262.466,254.83l-.068,18.838-28.3-.091.1-26.829,20.3.065-.029,7.992Z" transform="translate(-149.171 -139.292)" fill="none" stroke="#2b4b62" stroke-miterlimit="10" stroke-width="3"/>
        <rect id="長方形_2350" data-name="長方形 2350" width="18.843" height="28.32" transform="translate(113.227 134.375) rotate(-89.805)" fill="none" stroke="#2b4b62" stroke-miterlimit="10" stroke-width="3"/>
        <path id="パス_1527" data-name="パス 1527" d="M352.643,247.164l-.1,26.829-28.3-.091.068-18.837,8.845.028.029-7.992Z" transform="translate(-182.699 -139.435)" fill="none" stroke="#2b4b62" stroke-miterlimit="10" stroke-width="3"/>
        <rect id="長方形_2351" data-name="長方形 2351" width="26.834" height="28.309" transform="translate(169.848 134.558) rotate(-89.805)" fill="none" stroke="#2b4b62" stroke-miterlimit="10" stroke-width="3"/>
      </g>
      <path id="パス_1528" data-name="パス 1528" d="M137.913,49.446l-.187,52.172-55.7-.179,20.853-19.4,13.764-12.8Z" transform="translate(-31.237 -20.454)" fill="#fff" stroke="#2b4b62" stroke-miterlimit="10" stroke-width="3"/>
      <path id="パス_1529" data-name="パス 1529" d="M278.941,215.923l10.224,9.757L309.752,206.3" transform="translate(-104.473 -83.923)" fill="none" stroke="#2b4b62" stroke-linecap="round" stroke-miterlimit="10" stroke-width="10"/>
      <g id="グループ_716" data-name="グループ 716" transform="translate(19.985 106.428)">
        <path id="パス_1757" data-name="パス 1757" d="M0,0,8.62.221l1.992,78.858-8.62-.221Z" transform="translate(70.141 44.866) rotate(126.111)" fill="#fff" stroke="#2b4b62" stroke-width="1"/>
        <line id="線_421" data-name="線 421" x1="5.259" y2="6.833" transform="translate(10.185 6.947)" fill="none" stroke="#2b4b62" stroke-miterlimit="10" stroke-width="1"/>
        <path id="パス_1530" data-name="パス 1530" d="M151.532,281.516l-9.482-2.5,4.319-5.612Z" transform="translate(-73.546 -226.197)" fill="#fff" stroke="#2b4b62" stroke-miterlimit="10" stroke-width="1"/>
      </g>
    </g>
  </g>
</svg>
