<svg xmlns="http://www.w3.org/2000/svg" width="375.986" height="333.273" viewBox="0 0 375.986 333.273">
  <g id="グループ_727" data-name="グループ 727" transform="translate(-134.314 -11.604)">
    <g id="icon_4" data-name="icon 4" transform="translate(-443.668 -382.029)">
      <g id="グループ_608" data-name="グループ 608" transform="translate(602.045 430.252)">
        <path id="color_light_pink" data-name="color light pink" d="M30.855,0H109.8a30.855,30.855,0,0,1,30.855,30.855v158.21A30.855,30.855,0,0,1,109.8,219.92H30.855A30.855,30.855,0,0,1,0,189.065V30.855A30.855,30.855,0,0,1,30.855,0Z" transform="translate(0 42.89)" fill="#fffffe"/>
        <path id="パス_1256" data-name="パス 1256" d="M729.2,423.4H643.017A28.919,28.919,0,0,0,614.1,452.315v183.3a28.919,28.919,0,0,0,28.912,28.913H729.2a28.92,28.92,0,0,0,28.913-28.913v-183.3A28.92,28.92,0,0,0,729.2,423.4ZM691.254,571.954a32.368,32.368,0,1,1,23.668-10.282A32.376,32.376,0,0,1,691.254,571.954Z" transform="translate(-593.791 -423.402)" fill="none" stroke="#094067" stroke-miterlimit="10" stroke-width="2.722"/>
        <line id="線_389" data-name="線 389" x2="144.008" transform="translate(20.312 30.141)" fill="none" stroke="#094067" stroke-miterlimit="10" stroke-width="0.907"/>
        <line id="線_390" data-name="線 390" x2="144.008" transform="translate(20.312 210.989)" fill="none" stroke="#094067" stroke-miterlimit="10" stroke-width="0.907"/>
        <g id="グループ_637" data-name="グループ 637" transform="translate(70.548 11.722)">
          <circle id="楕円形_392" data-name="楕円形 392" cx="2.791" cy="2.791" r="2.791" fill="rgba(0,0,0,0)" stroke="#094067" stroke-miterlimit="10" stroke-width="1.815"/>
          <circle id="楕円形_393" data-name="楕円形 393" cx="2.791" cy="2.791" r="2.791" transform="translate(20.16 0.596)" fill="rgba(0,0,0,0)" stroke="#094067" stroke-miterlimit="10" stroke-width="1.815"/>
          <circle id="楕円形_394" data-name="楕円形 394" cx="2.791" cy="2.791" r="2.791" transform="translate(40.26 0.597)" fill="rgba(0,0,0,0)" stroke="#094067" stroke-miterlimit="10" stroke-width="1.815"/>
        </g>
        <path id="パス_1257" data-name="パス 1257" d="M688.973,570.417" transform="translate(-576.562 -389.569)" fill="#fff" stroke="#1a1818" stroke-miterlimit="10" stroke-width="0.907"/>
        <path id="パス_1259" data-name="パス 1259" d="M665.378,510.522" transform="translate(-581.991 -403.353)" fill="#ada4a3"/>
      </g>
      <circle id="楕円形_399" data-name="楕円形 399" cx="9.489" cy="9.489" r="9.489" transform="translate(773.962 402.813)" fill="#fdf754"/>
      <circle id="楕円形_400" data-name="楕円形 400" cx="5.024" cy="5.024" r="5.024" transform="translate(805.22 464.211)" fill="#fdf754"/>
      <circle id="楕円形_402" data-name="楕円形 402" cx="5.024" cy="5.024" r="5.024" transform="translate(595.347 478.724)" fill="#fdf754"/>
      <circle id="楕円形_403" data-name="楕円形 403" cx="6.14" cy="6.14" r="6.14" transform="translate(580.835 612.685)" fill="#fdf754"/>
      <circle id="楕円形_401" data-name="楕円形 401" cx="5.024" cy="5.024" r="5.024" transform="translate(744.937 501.051)" fill="#fdf754"/>
      <path id="パス_1260" data-name="パス 1260" d="M745.48,393.873c0,18.519,16.387,17.8,16.4,17.8h0" transform="translate(38.488 0.055)" fill="rgba(0,0,0,0)" stroke="#1a1818" stroke-miterlimit="10" stroke-width="0.907"/>
      <path id="パス_1261" data-name="パス 1261" d="M745.48,425.326c0-17.667,16.387-16.98,16.4-16.981h0" transform="translate(38.488 3.385)" fill="rgba(0,0,0,0)" stroke="#1a1818" stroke-miterlimit="10" stroke-width="0.907"/>
      <path id="パス_1262" data-name="パス 1262" d="M748.468,425.917c0-18.031-15.957-17.329-15.972-17.33h0" transform="translate(35.5 3.44)" fill="rgba(0,0,0,0)" stroke="#1a1818" stroke-miterlimit="10" stroke-width="0.907"/>
      <path id="パス_1263" data-name="パス 1263" d="M748.468,393.634c0,19.13-15.957,18.385-15.972,18.386h0" transform="translate(35.5 0)" fill="rgba(0,0,0,0)" stroke="#1a1818" stroke-miterlimit="10" stroke-width="0.907"/>
      <path id="パス_1264" data-name="パス 1264" d="M769.48,448.027c-3.5,9.522,5.778,12.515,5.786,12.519h0" transform="translate(43.829 12.518)" fill="rgba(0,0,0,0)" stroke="#1a1818" stroke-miterlimit="10" stroke-width="0.907"/>
      <path id="パス_1265" data-name="パス 1265" d="M763.984,463.711c3.341-9.085,12.356-5.367,12.365-5.364h0" transform="translate(42.746 14.719)" fill="rgba(0,0,0,0)" stroke="#1a1818" stroke-miterlimit="10" stroke-width="0.907"/>
      <path id="パス_1266" data-name="パス 1266" d="M764.938,465.115c3.411-9.27-5.626-12.185-5.634-12.188h0" transform="translate(41.669 13.645)" fill="rgba(0,0,0,0)" stroke="#1a1818" stroke-miterlimit="10" stroke-width="0.907"/>
      <path id="パス_1267" data-name="パス 1267" d="M771.694,447.9c-3.618,9.836-12.381,6.178-12.389,6.174h0" transform="translate(41.669 12.489)" fill="rgba(0,0,0,0)" stroke="#1a1818" stroke-miterlimit="10" stroke-width="0.907"/>
      <path id="パス_1268" data-name="パス 1268" d="M599.268,459.5c-3.4,9.241,5.609,12.147,5.617,12.15h0" transform="translate(4.663 15.157)" fill="rgba(0,0,0,0)" stroke="#1a1818" stroke-miterlimit="10" stroke-width="0.907"/>
      <path id="パス_1269" data-name="パス 1269" d="M593.933,474.718c3.243-8.817,11.994-5.208,12-5.206h0" transform="translate(3.612 17.293)" fill="rgba(0,0,0,0)" stroke="#1a1818" stroke-miterlimit="10" stroke-width="0.907"/>
      <path id="パス_1270" data-name="パス 1270" d="M594.86,476.084c3.31-9-5.461-11.828-5.469-11.832h0" transform="translate(2.567 16.252)" fill="rgba(0,0,0,0)" stroke="#1a1818" stroke-miterlimit="10" stroke-width="0.907"/>
      <path id="パス_1271" data-name="パス 1271" d="M601.418,459.377c-3.511,9.547-12.018,6-12.025,5.994h0" transform="translate(2.567 15.13)" fill="rgba(0,0,0,0)" stroke="#1a1818" stroke-miterlimit="10" stroke-width="0.907"/>
      <path id="パス_1272" data-name="パス 1272" d="M578.353,572.52c8.9,6.077,14.394-2.711,14.4-2.718h0" transform="translate(0.026 40.542)" fill="rgba(0,0,0,0)" stroke="#1a1818" stroke-miterlimit="10" stroke-width="0.907"/>
      <path id="パス_1273" data-name="パス 1273" d="M592.788,583.935c-8.494-5.8-2.328-14.124-2.322-14.132h0" transform="translate(2.315 40.542)" fill="rgba(0,0,0,0)" stroke="#1a1818" stroke-miterlimit="10" stroke-width="0.907"/>
      <path id="パス_1274" data-name="パス 1274" d="M595,581.588c-8.669-5.917-14.015,2.64-14.02,2.647h0" transform="translate(0.632 42.775)" fill="rgba(0,0,0,0)" stroke="#1a1818" stroke-miterlimit="10" stroke-width="0.907"/>
      <path id="パス_1275" data-name="パス 1275" d="M578.238,571.933c9.2,6.278,3.156,14.361,3.151,14.368h0" transform="translate(0 41.033)" fill="rgba(0,0,0,0)" stroke="#1a1818" stroke-miterlimit="10" stroke-width="0.907"/>
      <path id="パス_1276" data-name="パス 1276" d="M717.93,479.892c0,7.482,7.185,7.19,7.192,7.191h0" transform="translate(32.148 19.851)" fill="rgba(0,0,0,0)" stroke="#1a1818" stroke-miterlimit="10" stroke-width="0.907"/>
      <path id="パス_1277" data-name="パス 1277" d="M718.488,492.6c0-7.138,7.186-6.86,7.191-6.86h0" transform="translate(32.276 21.196)" fill="rgba(0,0,0,0)" stroke="#1a1818" stroke-miterlimit="10" stroke-width="0.907"/>
      <path id="パス_1278" data-name="パス 1278" d="M719.565,492.838c0-7.284-7-7-7-7h0" transform="translate(30.912 21.218)" fill="rgba(0,0,0,0)" stroke="#1a1818" stroke-miterlimit="10" stroke-width="0.907"/>
      <path id="パス_1279" data-name="パス 1279" d="M718.927,479.8c0,7.729-7,7.427-7,7.428h0" transform="translate(30.766 19.829)" fill="rgba(0,0,0,0)" stroke="#1a1818" stroke-miterlimit="10" stroke-width="0.907"/>
      <path id="パス_1280" data-name="パス 1280" d="M664.57,522.525l12.818,12.848,25.636-25.7" transform="translate(19.637 26.285)" fill="rgba(0,0,0,0)" stroke="#094067" stroke-miterlimit="10" stroke-width="4.537"/>
    </g>
    <g id="グループ_723" data-name="グループ 723" transform="translate(244.063 137.192)">
      <path id="パス_1608" data-name="パス 1608" d="M200.579,99.008v111.56H61.491V99.008H113.1a3.879,3.879,0,0,0,.068.483,5.759,5.759,0,0,0,5.65,4.733H143.36a5.759,5.759,0,0,0,5.65-4.733c.029-.155.048-.319.068-.483Z" transform="translate(-2.728 -4.332)" fill="#fffffe" stroke="#094067" stroke-miterlimit="10" stroke-width="2.898"/>
      <path id="パス_1609" data-name="パス 1609" d="M112.762,97.556a4.767,4.767,0,0,0,.029.531h-60.3V72.008h60.368a4.988,4.988,0,0,0-.1,1Z" transform="translate(-2.421 -3.411)" fill="#fffffe" stroke="#094067" stroke-miterlimit="10" stroke-width="1.932"/>
      <path id="パス_1610" data-name="パス 1610" d="M212.363,72.008V98.087H152.169a4.765,4.765,0,0,0,.029-.531V73.013a4.988,4.988,0,0,0-.1-1Z" transform="translate(-5.819 -3.411)" fill="#fffffe" stroke="#094067" stroke-miterlimit="10" stroke-width="1.932"/>
      <path id="パス_1611" data-name="パス 1611" d="M200.1,99.508V111.1H62V99.508h51.182a5.759,5.759,0,0,0,5.65,4.733h24.543a5.759,5.759,0,0,0,5.65-4.733Z" transform="translate(-2.746 -4.349)" fill="#deded8" opacity="0.5"/>
      <path id="パス_1612" data-name="パス 1612" d="M148.049,103.668V210.727H117.981V103.668a5.68,5.68,0,0,0,2.762.715h24.543A5.68,5.68,0,0,0,148.049,103.668Z" transform="translate(-4.655 -4.491)" fill="#fffffe" stroke="#094067" stroke-miterlimit="10" stroke-width="2.898"/>
      <path id="パス_1613" data-name="パス 1613" d="M114.357,66.652a15.9,15.9,0,0,0,.184,2.463,5.7,5.7,0,0,0-.9,1.6H68.1v-8.21h46.768A16.734,16.734,0,0,0,114.357,66.652Z" transform="translate(-2.954 -3.086)" fill="#fffffe" stroke="#094067" stroke-miterlimit="10" stroke-width="1.932"/>
      <path id="パス_1614" data-name="パス 1614" d="M195.4,62.508v8.21H151.784A5.826,5.826,0,0,0,150.809,69a17,17,0,0,0,.164-2.347,16.734,16.734,0,0,0-.512-4.144Z" transform="translate(-5.763 -3.086)" fill="#fffffe" stroke="#094067" stroke-miterlimit="10" stroke-width="1.932"/>
      <path id="パス_1615" data-name="パス 1615" d="M122.663,51.422c-.261.164-.512.338-.763.512a16.981,16.981,0,0,0-5.863,7.418,12.841,12.841,0,0,0-.58,1.719H81.13V34.509Z" transform="translate(-3.398 -2.131)" fill="#fffffe" stroke="#094067" stroke-miterlimit="10" stroke-width="1.932"/>
      <path id="パス_1616" data-name="パス 1616" d="M184.02,34.509V60.588H149.9c-.126-.425-.28-.831-.444-1.236a16.932,16.932,0,0,0-6.491-7.843c-.184-.126-.377-.241-.57-.348Z" transform="translate(-5.488 -2.131)" fill="#fffffe" stroke="#094067" stroke-miterlimit="10" stroke-width="1.932"/>
      <path id="パス_1617" data-name="パス 1617" d="M149.8,66.2a17,17,0,0,1-.164,2.347,5.743,5.743,0,0,0-4.414-2.057H120.676a5.736,5.736,0,0,0-4.5,2.173,15.9,15.9,0,0,1-.184-2.463,16.734,16.734,0,0,1,.512-4.144,3.985,3.985,0,0,1,.145-.483,12.838,12.838,0,0,1,.58-1.719,16.98,16.98,0,0,1,5.863-7.418c.251-.174.5-.348.763-.512a16.851,16.851,0,0,1,17.647-.261c.193.106.386.222.57.348a16.932,16.932,0,0,1,6.491,7.843c.164.406.319.811.444,1.236.106.319.193.637.28.966A16.734,16.734,0,0,1,149.8,66.2Z" transform="translate(-4.588 -2.636)" fill="#fff" stroke="#094067" stroke-miterlimit="10" stroke-width="1.932"/>
      <path id="パス_1618" data-name="パス 1618" d="M150.928,72.845V97.388a4.765,4.765,0,0,1-.029.531c-.019.164-.039.328-.068.483a5.759,5.759,0,0,1-5.65,4.733H120.638a5.759,5.759,0,0,1-5.65-4.733,3.879,3.879,0,0,1-.068-.483,4.767,4.767,0,0,1-.029-.531V72.845a4.988,4.988,0,0,1,.1-1,4.736,4.736,0,0,1,.251-.966,5.748,5.748,0,0,1,5.4-3.777h24.543a5.743,5.743,0,0,1,4.414,2.057,5.826,5.826,0,0,1,.976,1.719,4.2,4.2,0,0,1,.261.966A4.988,4.988,0,0,1,150.928,72.845Z" transform="translate(-4.55 -3.243)" fill="#fffffe" stroke="#094067" stroke-miterlimit="10" stroke-width="1.932"/>
      <path id="パス_1619" data-name="パス 1619" d="M209.485,52.49c1.251-3.219,9.013-22.714,18.756-24.7,1.653-.337,4.865-.994,6.863.915,1.434,1.372,2.028,3.864,1.12,5.425-1.515,2.6-7.343,2.864-9.416.845-3.826-3.724-.036-12.117,10.583-29.6" transform="translate(-7.777 -1.137)" fill="none" stroke="#094067" stroke-miterlimit="10" stroke-width="2.898"/>
      <path id="パス_1620" data-name="パス 1620" d="M219.754,68.959a45.451,45.451,0,0,1,21.375-12.444c21.165-5.828,21.533-2.792,32.874.133" transform="translate(-8.127 -2.769)" fill="none" stroke="#094067" stroke-miterlimit="10" stroke-width="2.898"/>
      <path id="パス_1621" data-name="パス 1621" d="M223.247,99.68c2.316-1.475,12.729-7.75,23.135-3.052a22.7,22.7,0,0,1,8.865,7.45" transform="translate(-8.246 -4.192)" fill="none" stroke="#094067" stroke-miterlimit="10" stroke-width="2.898"/>
    </g>
  </g>
</svg>
