<svg xmlns="http://www.w3.org/2000/svg" width="265.854" height="55" viewBox="0 0 265.854 55">
  <g id="Logo" transform="translate(2.5 2.5)">
    <g id="グループ_639" data-name="グループ 639" transform="translate(-13.607 -21.631)">
      <text id="家族付き合い" transform="translate(70.96 61.631)" fill="#003255" stroke="#003255" stroke-width="1" font-size="34.091" font-family="ZenKurenaido-Regular, Zen Kurenaido"><tspan x="0" y="0">家族付き合い</tspan></text>
      <g id="グループ_638" data-name="グループ 638" transform="translate(11.107 19.132)">
        <path id="パス_1375" data-name="パス 1375" d="M54.034,49.051v6.525a5.546,5.546,0,0,1-3.008,4.048,14.418,14.418,0,0,1-7.3,1.814H38.773V49.051Z" transform="translate(-17.991 -23.088)" fill="none" stroke="#003255" stroke-miterlimit="10" stroke-width="5"/>
        <path id="パス_1376" data-name="パス 1376" d="M20.755,25.8V37.387H12.822a12.9,12.9,0,0,0-7.3,2.1,6.747,6.747,0,0,0-2.907,3.984H2.532V35.33c-.021-.228-.032-.46-.032-.692A8.229,8.229,0,0,1,5.524,28.39a11.218,11.218,0,0,1,7.3-2.589Z" transform="translate(0 -11.557)" fill="none" stroke="#003255" stroke-miterlimit="10" stroke-width="5"/>
        <path id="パス_1377" data-name="パス 1377" d="M69.2,2.5V8.349c0,1.615-1.16,3.078-3.033,4.135a15.17,15.17,0,0,1-7.32,1.714H38.692V2.5Z" transform="translate(-17.951 0)" fill="none" stroke="#003255" stroke-miterlimit="10" stroke-width="5"/>
        <path id="パス_1378" data-name="パス 1378" d="M25.116,73.8v7.619a7.05,7.05,0,1,1-7.77-7.619Z" transform="translate(-4.236 -35.362)" fill="none" stroke="#003255" stroke-miterlimit="10" stroke-width="5"/>
      </g>
    </g>
  </g>
</svg>
