<svg xmlns="http://www.w3.org/2000/svg" width="144.458" height="52.389" viewBox="0 0 144.458 52.389">
  <g id="Artwork_2" data-name="Artwork 2" transform="translate(72.608 26.195)">
    <g id="グループ_651" data-name="グループ 651" transform="translate(-71.351 -24.938)">
      <text id="家族付き合い" transform="translate(40.702 30.876)" fill="#003255" stroke="#003255" stroke-width="0.499" font-size="17" font-family="ZenKurenaido-Regular, Zen Kurenaido"><tspan x="0" y="0">家族付き合い</tspan></text>
      <g id="グループ_650" data-name="グループ 650">
        <path id="パス_1399" data-name="パス 1399" d="M54,49.051v6.508A5.532,5.532,0,0,1,51,59.6a14.382,14.382,0,0,1-7.28,1.81H38.773V49.051Z" transform="translate(-20.536 -25.647)" fill="none" stroke="#003255" stroke-miterlimit="10" stroke-width="2.514"/>
        <path id="パス_1400" data-name="パス 1400" d="M20.709,25.8V37.359H12.8a12.869,12.869,0,0,0-7.28,2.1,6.73,6.73,0,0,0-2.9,3.974H2.532V35.306c-.021-.228-.032-.459-.032-.69a8.208,8.208,0,0,1,3.016-6.233A11.19,11.19,0,0,1,12.8,25.8Z" transform="translate(-2.5 -14.086)" fill="none" stroke="#003255" stroke-miterlimit="10" stroke-width="2.514"/>
        <path id="パス_1401" data-name="パス 1401" d="M69.122,2.5V8.335c0,1.611-1.157,3.07-3.025,4.125a15.132,15.132,0,0,1-7.3,1.709h-20.1V2.5Z" transform="translate(-20.496 -2.5)" fill="none" stroke="#003255" stroke-miterlimit="10" stroke-width="2.514"/>
        <path id="パス_1402" data-name="パス 1402" d="M25.081,73.8v7.6a7.032,7.032,0,1,1-7.751-7.6Z" transform="translate(-6.746 -37.952)" fill="none" stroke="#003255" stroke-miterlimit="10" stroke-width="2.514"/>
      </g>
    </g>
  </g>
</svg>
