<svg xmlns="http://www.w3.org/2000/svg" width="308.46" height="72.655" viewBox="0 0 308.46 72.655">
  <g id="コンポーネント_49_5" data-name="コンポーネント 49 – 5" transform="translate(2.5 2.5)">
    <g id="グループ_639" data-name="グループ 639">
      <text id="家族付き合い" transform="translate(99.96 48.827)" fill="#003255" stroke="#003255" stroke-width="1" font-size="34.091" font-family="ZenKurenaido-Regular, Zen Kurenaido"><tspan x="0" y="0">家族付き合い</tspan></text>
      <g id="グループ_638" data-name="グループ 638">
        <path id="パス_1375" data-name="パス 1375" d="M62.014,49.051v8.828c-.21,2.135-1.922,4.059-4.582,5.477a24.157,24.157,0,0,1-11.114,2.455H38.773V49.051Z" transform="translate(-10.931 -17.304)" fill="none" stroke="#003255" stroke-miterlimit="10" stroke-width="5"/>
        <path id="パス_1376" data-name="パス 1376" d="M30.3,25.8V41.479H18.219A21.469,21.469,0,0,0,7.1,44.323a9.264,9.264,0,0,0-4.427,5.391h-.13V38.695a9.247,9.247,0,0,1-.048-.936A10.72,10.72,0,0,1,7.1,29.3a18.436,18.436,0,0,1,11.114-3.5Z" transform="translate(-2.5 -9.91)" fill="none" stroke="#003255" stroke-miterlimit="10" stroke-width="5"/>
        <path id="パス_1377" data-name="パス 1377" d="M85.15,2.5v7.915c0,2.185-1.766,4.164-4.618,5.6a25.476,25.476,0,0,1-11.147,2.319H38.692V2.5Z" transform="translate(-10.912 -2.5)" fill="none" stroke="#003255" stroke-miterlimit="10" stroke-width="5"/>
        <path id="パス_1378" data-name="パス 1378" d="M32.477,73.8v10.31c-.467,4.886-5.08,8.721-10.7,8.721-5.929,0-10.738-4.272-10.738-9.542a9.1,9.1,0,0,1,3.605-7.131,11.371,11.371,0,0,1,6-2.358Z" transform="translate(-4.485 -25.173)" fill="none" stroke="#003255" stroke-miterlimit="10" stroke-width="5"/>
      </g>
    </g>
  </g>
</svg>
