<svg xmlns="http://www.w3.org/2000/svg" width="21.638" height="16.829" viewBox="0 0 21.638 16.829">
  <path id="Icon_awesome-address-card" data-name="Icon awesome-address-card" d="M19.835,2.25H1.8A1.8,1.8,0,0,0,0,4.053V17.276a1.8,1.8,0,0,0,1.8,1.8H19.835a1.8,1.8,0,0,0,1.8-1.8V4.053A1.8,1.8,0,0,0,19.835,2.25ZM6.612,5.856a2.4,2.4,0,1,1-2.4,2.4A2.406,2.406,0,0,1,6.612,5.856Zm4.207,8.9a.788.788,0,0,1-.841.721H3.246a.788.788,0,0,1-.841-.721v-.721a2.366,2.366,0,0,1,2.524-2.164h.188a3.869,3.869,0,0,0,2.99,0h.188a2.366,2.366,0,0,1,2.524,2.164Zm8.415-1.983a.3.3,0,0,1-.3.3H13.524a.3.3,0,0,1-.3-.3v-.6a.3.3,0,0,1,.3-.3h5.409a.3.3,0,0,1,.3.3Zm0-2.4a.3.3,0,0,1-.3.3H13.524a.3.3,0,0,1-.3-.3v-.6a.3.3,0,0,1,.3-.3h5.409a.3.3,0,0,1,.3.3Zm0-2.4a.3.3,0,0,1-.3.3H13.524a.3.3,0,0,1-.3-.3v-.6a.3.3,0,0,1,.3-.3h5.409a.3.3,0,0,1,.3.3Z" transform="translate(0 -2.25)" fill="#094067"/>
</svg>
