<svg xmlns="http://www.w3.org/2000/svg" width="16.084" height="14.294" viewBox="0 0 16.084 14.294">
  <path id="Icon_awesome-edit" data-name="Icon awesome-edit" d="M11.242,2.328l2.519,2.519a.273.273,0,0,1,0,.385l-6.1,6.1-2.591.288a.543.543,0,0,1-.6-.6l.288-2.591,6.1-6.1A.273.273,0,0,1,11.242,2.328Zm4.524-.639L14.4.325a1.092,1.092,0,0,0-1.541,0l-.989.989a.273.273,0,0,0,0,.385l2.519,2.519a.273.273,0,0,0,.385,0l.989-.989a1.092,1.092,0,0,0,0-1.541ZM10.723,9.672v2.843H1.787V3.579H8.2a.343.343,0,0,0,.237-.1L9.558,2.364a.335.335,0,0,0-.237-.572H1.34A1.341,1.341,0,0,0,0,3.132v9.829A1.341,1.341,0,0,0,1.34,14.3H11.17a1.341,1.341,0,0,0,1.34-1.34V8.555a.336.336,0,0,0-.572-.237L10.821,9.434A.343.343,0,0,0,10.723,9.672Z" transform="translate(0 -0.007)" fill="#cecece"/>
</svg>
