<svg xmlns="http://www.w3.org/2000/svg" width="29.654" height="22.457" viewBox="0 0 29.654 22.457">
  <path id="Icon_zocial-email" data-name="Icon zocial-email" d="M.072,24.536V6.057q0-.032.086-.61l9.694,9.3L.186,25.177a3.015,3.015,0,0,1-.114-.642ZM1.359,4.164a1.115,1.115,0,0,1,.486-.1H27.953a1.461,1.461,0,0,1,.515.1L18.745,13.5l-1.287,1.155L14.913,17l-2.545-2.342L11.081,13.5Zm.029,22.264,9.751-10.49,3.775,3.433,3.775-3.433,9.751,10.49a1.241,1.241,0,0,1-.486.1H1.845a1.172,1.172,0,0,1-.458-.1ZM19.975,14.751l9.665-9.3a2.129,2.129,0,0,1,.086.61V24.536a2.738,2.738,0,0,1-.086.642Z" transform="translate(-0.072 -4.068)" fill="#094067"/>
</svg>
