<svg xmlns="http://www.w3.org/2000/svg" width="25.5" height="25.5" viewBox="0 0 25.5 25.5">
  <path id="Icon_awesome-sticky-note" data-name="Icon awesome-sticky-note" d="M17.759,18.643H25.5V3.616A1.363,1.363,0,0,0,24.134,2.25H1.366A1.363,1.363,0,0,0,0,3.616V26.384A1.363,1.363,0,0,0,1.366,27.75H16.393V20.009A1.37,1.37,0,0,1,17.759,18.643ZM25.1,21.773l-5.578,5.578a1.365,1.365,0,0,1-.968.4h-.342V20.464H25.5v.347A1.362,1.362,0,0,1,25.1,21.773Z" transform="translate(0 -2.25)" fill="#094067"/>
</svg>
