<svg xmlns="http://www.w3.org/2000/svg" width="35" height="35" viewBox="0 0 35 35">
  <path id="パス_40" data-name="パス 40" d="M17.5,3.111a53.659,53.659,0,0,1,7,.194,9.019,9.019,0,0,1,3.306.583,6.829,6.829,0,0,1,3.306,3.306,9.019,9.019,0,0,1,.583,3.306c0,1.75.194,2.333.194,7a53.658,53.658,0,0,1-.194,7,9.019,9.019,0,0,1-.583,3.306,6.829,6.829,0,0,1-3.306,3.306,9.019,9.019,0,0,1-3.306.583c-1.75,0-2.333.194-7,.194a53.658,53.658,0,0,1-7-.194,9.019,9.019,0,0,1-3.306-.583,6.829,6.829,0,0,1-3.306-3.306A9.019,9.019,0,0,1,3.306,24.5c0-1.75-.194-2.333-.194-7a53.659,53.659,0,0,1,.194-7,9.019,9.019,0,0,1,.583-3.306A6.984,6.984,0,0,1,5.25,5.25,3.287,3.287,0,0,1,7.194,3.889,9.019,9.019,0,0,1,10.5,3.306a53.659,53.659,0,0,1,7-.194M17.5,0a57.453,57.453,0,0,0-7.194.194A12,12,0,0,0,6.028.972,7.612,7.612,0,0,0,2.917,2.917,7.612,7.612,0,0,0,.972,6.028a8.86,8.86,0,0,0-.778,4.278A57.453,57.453,0,0,0,0,17.5a57.453,57.453,0,0,0,.194,7.194,12,12,0,0,0,.778,4.278,7.612,7.612,0,0,0,1.944,3.111,7.612,7.612,0,0,0,3.111,1.944,12,12,0,0,0,4.278.778A57.452,57.452,0,0,0,17.5,35a57.452,57.452,0,0,0,7.194-.194,12,12,0,0,0,4.278-.778,8.158,8.158,0,0,0,5.056-5.056,12,12,0,0,0,.778-4.278c0-1.944.194-2.528.194-7.194a57.452,57.452,0,0,0-.194-7.194,12,12,0,0,0-.778-4.278,7.612,7.612,0,0,0-1.944-3.111A7.612,7.612,0,0,0,28.972.972,12,12,0,0,0,24.694.194,57.453,57.453,0,0,0,17.5,0m0,8.556A8.8,8.8,0,0,0,8.556,17.5,8.944,8.944,0,1,0,17.5,8.556m0,14.778A5.729,5.729,0,0,1,11.667,17.5,5.729,5.729,0,0,1,17.5,11.667,5.729,5.729,0,0,1,23.333,17.5,5.729,5.729,0,0,1,17.5,23.333M26.833,6.028a2.139,2.139,0,1,0,2.139,2.139,2.158,2.158,0,0,0-2.139-2.139" fill="#094067" fill-rule="evenodd"/>
</svg>
