<svg xmlns="http://www.w3.org/2000/svg" width="216.234" height="268.221" viewBox="0 0 216.234 268.221">
  <g id="icon_4" data-name="icon 4" transform="translate(0.282)">
    <g id="グループ_608" data-name="グループ 608" transform="translate(21.326 32.802)">
      <rect id="color_light_pink" data-name="color light pink" width="126" height="197" rx="34" transform="translate(0 38.419)" fill="#90d8ff"/>
      <circle id="color_pink" data-name="color pink" cx="32.5" cy="32.5" r="32.5" transform="translate(50 78.419)" fill="#3da9fc"/>
      <path id="パス_1256" data-name="パス 1256" d="M779.8,466.559H702.6a25.905,25.905,0,0,0-25.9,25.9v164.2a25.905,25.905,0,0,0,25.9,25.9h77.2a25.906,25.906,0,0,0,25.9-25.9v-164.2A25.906,25.906,0,0,0,779.8,466.559Zm-33.991,133.07a28.995,28.995,0,1,1,21.2-9.21A29,29,0,0,1,745.809,599.629Z" transform="translate(-658.504 -466.559)" fill="none" stroke="#094067" stroke-miterlimit="10" stroke-width="3"/>
      <line id="線_389" data-name="線 389" x2="129" transform="translate(18.195 27)" fill="none" stroke="#094067" stroke-miterlimit="10" stroke-width="1"/>
      <line id="線_390" data-name="線 390" x2="129" transform="translate(18.195 189)" fill="none" stroke="#094067" stroke-miterlimit="10" stroke-width="1"/>
      <g id="グループ_637" data-name="グループ 637" transform="translate(63.195 10.5)">
        <circle id="楕円形_392" data-name="楕円形 392" cx="2.5" cy="2.5" r="2.5" fill="rgba(0,0,0,0)" stroke="#1a1818" stroke-miterlimit="10" stroke-width="2"/>
        <circle id="楕円形_393" data-name="楕円形 393" cx="2.5" cy="2.5" r="2.5" transform="translate(18.059 0.534)" fill="rgba(0,0,0,0)" stroke="#1a1818" stroke-miterlimit="10" stroke-width="2"/>
        <circle id="楕円形_394" data-name="楕円形 394" cx="2.5" cy="2.5" r="2.5" transform="translate(36.064 0.535)" fill="rgba(0,0,0,0)" stroke="#1a1818" stroke-miterlimit="10" stroke-width="2"/>
      </g>
      <path id="パス_1257" data-name="パス 1257" d="M759.2,628.559" transform="translate(-658.504 -466.559)" fill="#fff" stroke="#1a1818" stroke-miterlimit="10" stroke-width="1"/>
      <path id="パス_1259" data-name="パス 1259" d="M733.2,562.559" transform="translate(-658.504 -466.559)" fill="#ada4a3"/>
    </g>
    <circle id="楕円形_399" data-name="楕円形 399" cx="8.5" cy="8.5" r="8.5" transform="translate(175.326 8.221)" fill="#fdf754"/>
    <circle id="楕円形_400" data-name="楕円形 400" cx="4.5" cy="4.5" r="4.5" transform="translate(203.326 63.221)" fill="#fdf754"/>
    <circle id="楕円形_402" data-name="楕円形 402" cx="4.5" cy="4.5" r="4.5" transform="translate(15.326 76.221)" fill="#fdf754"/>
    <circle id="楕円形_403" data-name="楕円形 403" cx="5.5" cy="5.5" r="5.5" transform="translate(2.326 196.221)" fill="#fdf754"/>
    <circle id="楕円形_401" data-name="楕円形 401" cx="4.5" cy="4.5" r="4.5" transform="translate(149.326 96.221)" fill="#fdf754"/>
    <path id="パス_1260" data-name="パス 1260" d="M821.467,434.02c0,16.589,14.679,15.943,14.693,15.944h0" transform="translate(-637.178 -433.757)" fill="rgba(0,0,0,0)" stroke="#1a1818" stroke-miterlimit="10" stroke-width="1"/>
    <path id="パス_1261" data-name="パス 1261" d="M821.467,465.178c0-15.826,14.679-15.21,14.693-15.211h0" transform="translate(-637.178 -433.757)" fill="rgba(0,0,0,0)" stroke="#1a1818" stroke-miterlimit="10" stroke-width="1"/>
    <path id="パス_1262" data-name="パス 1262" d="M821.467,465.757c0-16.152-14.294-15.523-14.307-15.524h0" transform="translate(-637.178 -433.757)" fill="rgba(0,0,0,0)" stroke="#1a1818" stroke-miterlimit="10" stroke-width="1"/>
    <path id="パス_1263" data-name="パス 1263" d="M821.467,433.757c0,17.136-14.294,16.469-14.307,16.47h0" transform="translate(-637.178 -433.757)" fill="rgba(0,0,0,0)" stroke="#1a1818" stroke-miterlimit="10" stroke-width="1"/>
    <path id="パス_1264" data-name="パス 1264" d="M847.75,493.694c-3.138,8.53,5.176,11.211,5.183,11.214h0" transform="translate(-637.178 -433.757)" fill="rgba(0,0,0,0)" stroke="#1a1818" stroke-miterlimit="10" stroke-width="1"/>
    <path id="パス_1265" data-name="パス 1265" d="M841.857,509.715c2.993-8.138,11.068-4.808,11.076-4.8h0" transform="translate(-637.178 -433.757)" fill="rgba(0,0,0,0)" stroke="#1a1818" stroke-miterlimit="10" stroke-width="1"/>
    <path id="パス_1266" data-name="パス 1266" d="M841.747,510.012c3.055-8.3-5.04-10.915-5.047-10.918h0" transform="translate(-637.178 -433.757)" fill="rgba(0,0,0,0)" stroke="#1a1818" stroke-miterlimit="10" stroke-width="1"/>
    <path id="パス_1267" data-name="パス 1267" d="M847.8,493.559c-3.241,8.811-11.091,5.534-11.1,5.531h0" transform="translate(-637.178 -433.757)" fill="rgba(0,0,0,0)" stroke="#1a1818" stroke-miterlimit="10" stroke-width="1"/>
    <path id="パス_1268" data-name="パス 1268" d="M660.193,506.333c-3.045,8.278,5.024,10.881,5.032,10.884h0" transform="translate(-637.178 -433.757)" fill="rgba(0,0,0,0)" stroke="#1a1818" stroke-miterlimit="10" stroke-width="1"/>
    <path id="パス_1269" data-name="パス 1269" d="M654.473,521.882c2.9-7.9,10.744-4.665,10.751-4.663h0" transform="translate(-637.178 -433.757)" fill="rgba(0,0,0,0)" stroke="#1a1818" stroke-miterlimit="10" stroke-width="1"/>
    <path id="パス_1270" data-name="パス 1270" d="M654.367,522.172c2.965-8.061-4.892-10.6-4.9-10.6h0" transform="translate(-637.178 -433.757)" fill="rgba(0,0,0,0)" stroke="#1a1818" stroke-miterlimit="10" stroke-width="1"/>
    <path id="パス_1271" data-name="パス 1271" d="M660.241,506.2c-3.145,8.552-10.765,5.371-10.772,5.369h0" transform="translate(-637.178 -433.757)" fill="rgba(0,0,0,0)" stroke="#1a1818" stroke-miterlimit="10" stroke-width="1"/>
    <path id="パス_1272" data-name="パス 1272" d="M637.3,630.317c7.976,5.444,12.894-2.428,12.9-2.435h0" transform="translate(-637.178 -433.757)" fill="rgba(0,0,0,0)" stroke="#1a1818" stroke-miterlimit="10" stroke-width="1"/>
    <path id="パス_1273" data-name="パス 1273" d="M652.285,640.542c-7.609-5.194-2.085-12.652-2.08-12.659h0" transform="translate(-637.178 -433.757)" fill="rgba(0,0,0,0)" stroke="#1a1818" stroke-miterlimit="10" stroke-width="1"/>
    <path id="パス_1274" data-name="パス 1274" d="M652.763,640.439c-7.766-5.3-12.554,2.365-12.559,2.371h0" transform="translate(-637.178 -433.757)" fill="rgba(0,0,0,0)" stroke="#1a1818" stroke-miterlimit="10" stroke-width="1"/>
    <path id="パス_1275" data-name="パス 1275" d="M637.178,630.23c8.239,5.624,2.827,12.864,2.823,12.871h0" transform="translate(-637.178 -433.757)" fill="rgba(0,0,0,0)" stroke="#1a1818" stroke-miterlimit="10" stroke-width="1"/>
    <path id="パス_1276" data-name="パス 1276" d="M791.109,528.807c0,6.7,6.436,6.441,6.442,6.442h0" transform="translate(-637.178 -433.757)" fill="rgba(0,0,0,0)" stroke="#1a1818" stroke-miterlimit="10" stroke-width="1"/>
    <path id="パス_1277" data-name="パス 1277" d="M791.723,541.4c0-6.394,6.437-6.145,6.442-6.145h0" transform="translate(-637.178 -433.757)" fill="rgba(0,0,0,0)" stroke="#1a1818" stroke-miterlimit="10" stroke-width="1"/>
    <path id="パス_1278" data-name="パス 1278" d="M791.466,541.629c0-6.525-6.267-6.271-6.273-6.272h0" transform="translate(-637.178 -433.757)" fill="rgba(0,0,0,0)" stroke="#1a1818" stroke-miterlimit="10" stroke-width="1"/>
    <path id="パス_1279" data-name="パス 1279" d="M790.764,528.7c0,6.923-6.267,6.653-6.272,6.654h0" transform="translate(-637.178 -433.757)" fill="rgba(0,0,0,0)" stroke="#1a1818" stroke-miterlimit="10" stroke-width="1"/>
    <path id="パス_1280" data-name="パス 1280" d="M732.309,573.138l11.482,11.509,22.964-23.017" transform="translate(-637.385 -434.134)" fill="rgba(0,0,0,0)" stroke="#fffffe" stroke-miterlimit="10" stroke-width="5"/>
  </g>
</svg>
