<svg xmlns="http://www.w3.org/2000/svg" width="276.294" height="228.552" viewBox="0 0 276.294 228.552">
  <g id="icon1" transform="translate(-1.889 -33.677)">
    <path id="color_white" data-name="color white" d="M.118,2.975,17.69-3.913,52.066-2.56,44.229,29.011a51.658,51.658,0,0,0-22.35-5.034c-12.961,0-26.352,4.15-26.352,4.15Z" transform="matrix(0.799, 0.602, -0.602, 0.799, 26.736, 39.494)" fill="#fff"/>
    <path id="color_light_pink" data-name="color light pink" d="M114.18,134.389a4.81,4.81,0,0,0,.029.532H54.38v-26.1h59.9a5.035,5.035,0,0,0-.1,1.005Z" transform="translate(-3.544 3.298)" fill="#90d8ff"/>
    <path id="color" d="M114.18,134.389a4.81,4.81,0,0,0,.029.532H54.38v-26.1h59.9a5.035,5.035,0,0,0-.1,1.005Z" transform="translate(97.97 3.298)" fill="#90d8ff"/>
    <path id="color-2" data-name="color" d="M19.624,0H98.047c10.838,0,19.624,6.139,19.624,13.712s-8.786,13.712-19.624,13.712H19.624C8.786,27.424,0,21.285,0,13.712S8.786,0,19.624,0Z" transform="translate(142.477 144.559) rotate(90)" fill="#3da9fc"/>
    <path id="color-3" data-name="color" d="M10.35-10.308,46.992,4.925H67.664L102.78-10.308c2.306,0,2.306,24.873,0,24.873L69.295,17.8l-13.2,1.49L46.992,17.8,10.35,14.565C8.044,14.565,8.3-10.308,10.35-10.308Z" transform="translate(78.602 85.257)" fill="#3da9fc"/>
    <path id="パス_1316" data-name="パス 1316" d="M207.38,135.819v115.5h-144v-115.5h53.43a4.013,4.013,0,0,0,.07.5,5.962,5.962,0,0,0,5.85,4.9h25.41a5.962,5.962,0,0,0,5.85-4.9c.03-.16.05-.33.07-.5Z" fill="rgba(0,0,0,0)" stroke="#094067" stroke-miterlimit="10" stroke-width="3"/>
    <path id="パス_1317" data-name="パス 1317" d="M116.78,135.269a4.934,4.934,0,0,0,.03.55H54.38v-27h62.5a5.165,5.165,0,0,0-.1,1.04Z" fill="rgba(0,0,0,0)" stroke="#094067" stroke-miterlimit="10" stroke-width="2"/>
    <path id="パス_1318" data-name="パス 1318" d="M216.38,108.819v27H154.06a4.932,4.932,0,0,0,.03-.55v-25.41a5.165,5.165,0,0,0-.1-1.04Z" fill="rgba(0,0,0,0)" stroke="#094067" stroke-miterlimit="10" stroke-width="2"/>
    <path id="パス_1319" data-name="パス 1319" d="M206.87,136.319C117.19,138.119,153.68,138.119,206.87,136.319Z" fill="#deded8" stroke="#094067" stroke-width="1" opacity="0.5"/>
    <path id="パス_1320" data-name="パス 1320" d="M151,140.479v110.84H119.87V140.479a5.881,5.881,0,0,0,2.86.74h25.41A5.881,5.881,0,0,0,151,140.479Z" fill="rgba(0,0,0,0)" stroke="#094067" stroke-miterlimit="10" stroke-width="3"/>
    <path id="パス_1321" data-name="パス 1321" d="M117.88,103.609a16.459,16.459,0,0,0,.19,2.55,5.9,5.9,0,0,0-.93,1.66H69.99v-8.5h48.42A17.325,17.325,0,0,0,117.88,103.609Z" fill="rgba(0,0,0,0)" stroke="#094067" stroke-miterlimit="10" stroke-width="2"/>
    <path id="パス_1322" data-name="パス 1322" d="M198.88,99.319v8.5H153.72a6.031,6.031,0,0,0-1.01-1.78,17.6,17.6,0,0,0,.17-2.43,17.326,17.326,0,0,0-.53-4.29Z" fill="rgba(0,0,0,0)" stroke="#094067" stroke-miterlimit="10" stroke-width="2"/>
    <path id="パス_1323" data-name="パス 1323" d="M126.019,88.831c-.27.17-.53.35-.79.53a17.58,17.58,0,0,0-6.07,7.68,13.294,13.294,0,0,0-.6,1.78H83.019v-27.5Z" fill="rgba(0,0,0,0)" stroke="#094067" stroke-miterlimit="10" stroke-width="2"/>
    <path id="パス_1324" data-name="パス 1324" d="M187.379,71.321v27h-35.32c-.13-.44-.29-.86-.46-1.28a17.53,17.53,0,0,0-6.72-8.12c-.19-.13-.39-.25-.59-.36Z" fill="rgba(0,0,0,0)" stroke="#094067" stroke-miterlimit="10" stroke-width="2"/>
    <path id="パス_1325" data-name="パス 1325" d="M152.88,103.609a17.6,17.6,0,0,1-.17,2.43,5.946,5.946,0,0,0-4.57-2.13H122.73a5.939,5.939,0,0,0-4.66,2.25,16.459,16.459,0,0,1-.19-2.55,17.325,17.325,0,0,1,.53-4.29,4.126,4.126,0,0,1,.15-.5,13.293,13.293,0,0,1,.6-1.78,17.58,17.58,0,0,1,6.07-7.68c.26-.18.52-.36.79-.53a17.446,17.446,0,0,1,18.27-.27c.2.11.4.23.59.36a17.53,17.53,0,0,1,6.72,8.12c.17.42.33.84.46,1.28.11.33.2.66.29,1A17.326,17.326,0,0,1,152.88,103.609Z" transform="translate(0.529 0.168)" fill="rgba(0,0,0,0)" stroke="#094067" stroke-miterlimit="10" stroke-width="2"/>
    <path id="パス_1326" data-name="パス 1326" d="M154.09,109.859v25.41a4.932,4.932,0,0,1-.03.55c-.02.17-.04.34-.07.5a5.962,5.962,0,0,1-5.85,4.9H122.73a5.962,5.962,0,0,1-5.85-4.9,4.013,4.013,0,0,1-.07-.5,4.934,4.934,0,0,1-.03-.55v-25.41a5.165,5.165,0,0,1,.1-1.04,4.9,4.9,0,0,1,.26-1,5.951,5.951,0,0,1,5.59-3.91h25.41a5.946,5.946,0,0,1,4.57,2.13,6.031,6.031,0,0,1,1.01,1.78,4.353,4.353,0,0,1,.27,1A5.165,5.165,0,0,1,154.09,109.859Z" fill="rgba(0,0,0,0)" stroke="#094067" stroke-miterlimit="10" stroke-width="2"/>
    <path id="パス_1327" data-name="パス 1327" d="M211.374,90.965c1.3-3.333,9.331-23.516,19.418-25.576,1.711-.349,5.037-1.028,7.1.948,1.485,1.419,2.1,4,1.159,5.616-1.567,2.695-7.6,2.965-9.748.875-3.961-3.855-.037-12.544,10.957-30.646" fill="rgba(0,0,0,0)" stroke="#094067" stroke-miterlimit="10" stroke-width="3"/>
    <path id="パス_1328" data-name="パス 1328" d="M221.643,106.327a47.059,47.059,0,0,1,22.13-12.883c21.913-6.033,22.294-2.89,34.035.138" fill="rgba(0,0,0,0)" stroke="#094067" stroke-miterlimit="10" stroke-width="3"/>
    <path id="パス_1329" data-name="パス 1329" d="M225.136,136.659c2.4-1.527,13.179-8.024,23.952-3.16a23.507,23.507,0,0,1,9.178,7.714" fill="rgba(0,0,0,0)" stroke="#094067" stroke-miterlimit="10" stroke-width="3"/>
    <g id="グループ_633" data-name="グループ 633">
      <path id="パス_1330" data-name="パス 1330" d="M2.542,54.454c6.775,1.069,19.925,3.738,32.534,10.652C48.651,72.55,54.446,80.991,56.765,85.08" fill="rgba(0,0,0,0)" stroke="#094067" stroke-miterlimit="10" stroke-width="2"/>
      <path id="パス_1331" data-name="パス 1331" d="M22.5,37.8c6.775,1.07,19.925,3.739,32.534,10.653C68.611,55.9,74.406,64.337,76.725,68.425" fill="rgba(0,0,0,0)" stroke="#094067" stroke-miterlimit="10" stroke-width="2"/>
      <line id="線_412" data-name="線 412" x1="19.96" y2="17.213" transform="translate(2.542 37.799)" fill="none" stroke="#094067" stroke-miterlimit="10" stroke-width="2"/>
      <line id="線_413" data-name="線 413" x1="20.37" y2="16.649" transform="translate(56.641 68.006)" fill="none" stroke="#094067" stroke-miterlimit="10" stroke-width="2"/>
      <path id="パス_1332" data-name="パス 1332" d="M69.093,75.01c4.536,2.655,6.478,6.866,4.882,10.586a1.908,1.908,0,0,1-.638.871c-.9.646-2.631.51-3.815.068-1.717-.643-2.878-2.072-1.862-3.137s3.644-1.133,5.29-.438a5.976,5.976,0,0,1,3.075,3.075c1.534,3.078,1.833,6.328,2.121,9.542l.337,3.744" fill="rgba(0,0,0,0)" stroke="#094067" stroke-miterlimit="10" stroke-width="2"/>
    </g>
  </g>
</svg>
