<svg xmlns="http://www.w3.org/2000/svg" width="551.082" height="182.303" viewBox="0 0 551.082 182.303">
  <g id="グループ_739" data-name="グループ 739" transform="translate(-9805.712 -12358.373)">
    <path id="パス_1335" data-name="パス 1335" d="M406.518,361.622c-33.4-13.063-66.4-21.063-102.4-26.063-33.379-4.636-49.966-.537-57,1-32.524,7.109-53.966,23.942-64,32-35.115,28.2-50.386,63.282-56.68,81.2" transform="translate(9688.721 12090.09)" fill="rgba(0,0,0,0)" stroke="#094067" stroke-miterlimit="10" stroke-width="5"/>
    <path id="パス_1336" data-name="パス 1336" d="M434.714,373.343q-8.656-3.388-17.163-7.144" transform="translate(9688.721 12090.09)" fill="rgba(0,0,0,0)" stroke="#094067" stroke-miterlimit="10" stroke-width="5"/>
    <path id="パス_1337" data-name="パス 1337" d="M650.055,268.332a244.616,244.616,0,0,1-5.866,50.863c-3.83,16.407-9.915,32.517-19.563,46.425-9.947,14.341-24.118,26.424-40.532,32.7-20.686,7.913-45.481,2.343-66.491-1.491a450.432,450.432,0,0,1-67.51-17.8q-4.1-1.431-8.173-2.943" transform="translate(9688.721 12090.09)" fill="rgba(0,0,0,0)" stroke="#094067" stroke-miterlimit="10" stroke-width="5"/>
    <path id="パス_1338" data-name="パス 1338" d="M629.984,270.466a52.389,52.389,0,0,1-18.447,36.249" transform="translate(9688.721 12090.09)" fill="rgba(0,0,0,0)" stroke="#094067" stroke-miterlimit="10" stroke-width="3"/>
    <path id="パス_1339" data-name="パス 1339" d="M665.5,270.24l.072,24.28" transform="translate(9688.721 12090.09)" fill="rgba(0,0,0,0)" stroke="#094067" stroke-miterlimit="10" stroke-width="5"/>
    <path id="パス_1340" data-name="パス 1340" d="M146.923,437.928A241.3,241.3,0,0,1,207.5,367.166" transform="translate(9688.721 12090.09)" fill="rgba(0,0,0,0)" stroke="#094067" stroke-miterlimit="10" stroke-width="5"/>
    <path id="パス_1341" data-name="パス 1341" d="M118.4,440.433a147.037,147.037,0,0,1,24.863-43.578" transform="translate(9688.721 12090.09)" fill="rgba(0,0,0,0)" stroke="#094067" stroke-miterlimit="10" stroke-width="3"/>
    <path id="パス_1342" data-name="パス 1342" d="M513.913,408.379c31.495,15.1,71.393,10.734,98.877-10.822" transform="translate(9688.721 12090.09)" fill="rgba(0,0,0,0)" stroke="#094067" stroke-miterlimit="10" stroke-width="3"/>
    <path id="パス_1343" data-name="パス 1343" d="M293.212,324.286a185.178,185.178,0,0,1,51.361,9.129" transform="translate(9688.721 12090.09)" fill="rgba(0,0,0,0)" stroke="#094067" stroke-miterlimit="10" stroke-width="5"/>
  </g>
</svg>
